<?xml version="1.0" encoding="utf-8"?>
<!-- Generator: Adobe Illustrator 19.2.1, SVG Export Plug-In . SVG Version: 6.00 Build 0)  -->
<svg version="1.1" id="layer" xmlns="http://www.w3.org/2000/svg" xmlns:xlink="http://www.w3.org/1999/xlink" x="0px" y="0px"
	viewBox="0 0 652 652" style="enable-background:new 0 0 652 652;" xml:space="preserve">
<style type="text/css">
	.st0{fill:#fbff00;}
</style>
<path class="st0" d="M171.9,227.7v37.2h49.6v84.2h33.1l-3.6,10.3c-3.3,9.8-7.8,19.2-13.2,27.9l27.5,29.5h1.7v-152h51.8v-37.2
	L171.9,227.7z"/>
<path class="st0" d="M126.4,384.1c0-15.7,8.4-25.8,19-33.7c-8.2-8.8-12.3-16.4-12.3-27.5c0-4.6,0.9-9.2,2.8-13.4
	c-7.6-3.6-15.4-6.7-23.5-9.1c-30-9.3-37-14.2-37-26.1s10-18.5,25.8-18.5c15.4,0,30.3,5.6,41.9,15.8l21.3-24.2
	c-17.1-15.8-37.3-24.2-66.7-24.2c-39.9,0-69.3,21.3-69.3,54.5c0,28,15.8,45.5,58.8,58.6c28,8.4,35.2,14.7,35.2,28.6
	c0,14.4-11.6,23.1-30.5,23.1c-17.9,0.1-35.2-6.7-48.3-18.8l-23.3,25c15.8,15,39.7,27,73,27c15.6,0.4,31.1-2.9,45.2-9.6
	C130.6,404.5,126.2,394.5,126.4,384.1z"/>
<path class="st0" d="M213,321.8c0,14-9.3,23-22.5,31.6l22.9,21.2c3.2-6.7,6-8.9,8.2-18.2h22.6c-3.7,11.3-9.1,22-15.9,31.8l27,28.7
	h-29.1L212.8,404c-10.6,8.4-23.7,12.8-37.2,12.5c-25.1,0-42-12.9-42-32.4c0-13.9,7.6-22.9,22.9-32.7c-11.7-11.2-16.3-17.9-16.3-28.5
	c0-14.3,11.7-27.8,36.4-27.8C199.6,295.2,213,306.7,213,321.8z M171.9,365.6c-7,5-10.2,10.3-10.2,17c0,9.3,7.3,15.2,18.5,15.2
	c6.9,0.1,13.7-2.1,19.2-6.4L171.9,365.6z M166.1,322.9c0,5.8,2.5,9.7,9.7,16.7c7.8-5,11.6-10,11.6-17c0.4-5.3-3.5-9.9-8.8-10.3
	c-0.5,0-1.1,0-1.6,0c-5.5-0.5-10.4,3.6-10.9,9.2C166.1,321.9,166.1,322.4,166.1,322.9z"/>
<path class="st0" d="M372.9,381.8c0,25.3-19.6,33.9-47.3,33.9h-32.9V296.4h28.3c29.5,0,46.8,9.3,46.8,30.1
	c0,14.7-10.7,23.8-22.3,26.2C359.2,355.1,372.9,361.5,372.9,381.8z M309.1,347h18c13.3,0,23.7-6.6,23.7-19.2
	c0-14.7-10.5-18.5-28.2-18.5h-13.5V347z M325.6,402.6c17.3,0,30-3.5,30-20.8c0-16.8-12.3-22.2-26.9-22.2h-19.6v43H325.6z"/>
<path class="st0" d="M450.7,393.6c0,8,2.9,10.5,7.6,12.3l-3.6,11.1c-9.3-1-15.1-4.7-17.9-13.7c-6.1,9-16.4,14.2-27.2,13.7
	c-18.2,0-29.1-11.3-29.1-27.5c0-19.6,14.7-30.2,40.1-30.2h14v-6.7c0-13.2-6.4-18-19.1-18c-8.4,0.3-16.8,2-24.7,4.8l-4-11.6
	c10.1-3.9,20.7-6,31.5-6.2c22,0,32.1,11.3,32.1,30.4L450.7,393.6z M434.8,390.8v-21h-12c-16.8,0-25.3,6.2-25.3,18.7
	c0,10.7,5.4,16.5,15.8,16.5C422.7,405.1,429.6,400.4,434.8,390.8z"/>
<path class="st0" d="M534.4,349.6v65.4h-15.9v-63.3c0-13.7-5.5-17.7-14.4-17.7c-10.2,0-17.2,6.4-23.2,16.1v64.8h-15.9v-91.3h13.7
	l1.3,13.6c6-9.6,16.6-15.5,27.9-15.6C524.7,321.5,534.4,332.1,534.4,349.6z"/>
<path class="st0" d="M548,414.9V298.2l15.9-2.6v119.3H548z M620.3,414.9h-19.1L564.9,365l33.6-41.4h17.9l-33.6,40.4L620.3,414.9z"/>
</svg>
